HIERARCHY
ROOT Hips
{
	OFFSET 0.000000 97.167313 0.000000
	CHANNELS 6 Xposition Yposition Zposition Xrotation Yrotation Zrotation
	JOINT Spine
	{
		OFFSET 0.000000 13.784798 0.064400
		CHANNELS 3 Xrotation Yrotation Zrotation
		JOINT Spine1
		{
			OFFSET 0.000000 12.037903 0.404700
			CHANNELS 3 Xrotation Yrotation Zrotation
			JOINT Spine2
			{
				OFFSET 0.000000 17.795601 0.420200
				CHANNELS 3 Xrotation Yrotation Zrotation
				JOINT Neck
				{
					OFFSET 0.000000 39.131302 11.954600
					CHANNELS 3 Xrotation Yrotation Zrotation
					JOINT Head
					{
						OFFSET 0.000000 14.456192 15.627699
						CHANNELS 3 Xrotation Yrotation Zrotation
						JOINT HeadTop_End
						{
							OFFSET 0.000000 15.703506 7.603401
							CHANNELS 3 Xrotation Yrotation Zrotation
							End Site
							{
								OFFSET 0.000000 17.447403 0.000000
							}
						}
					}
				}
				JOINT LeftShoulder
				{
					OFFSET 17.399500 24.608795 1.168800
					CHANNELS 3 Xrotation Yrotation Zrotation
					JOINT LeftArm
					{
						OFFSET 18.980635 5.765305 1.818600
						CHANNELS 3 Xrotation Yrotation Zrotation
						JOINT LeftForeArm
						{
							OFFSET 49.290169 0.000000 0.000000
							CHANNELS 3 Xrotation Yrotation Zrotation
							JOINT LeftHand
							{
								OFFSET 31.562012 0.000000 0.000000
								CHANNELS 3 Xrotation Yrotation Zrotation
								JOINT LeftHandThumb1
								{
									OFFSET 6.133995 -4.388519 7.076070
									CHANNELS 3 Xrotation Yrotation Zrotation
									JOINT LeftHandThumb2
									{
										OFFSET 6.037666 -3.485840 3.485847
										CHANNELS 3 Xrotation Yrotation Zrotation
										JOINT LeftHandThumb3
										{
											OFFSET 6.496506 -3.750763 3.750761
											CHANNELS 3 Xrotation Yrotation Zrotation
											JOINT LeftHandThumb4
											{
												OFFSET 5.616882 -3.242905 3.242910
												CHANNELS 3 Xrotation Yrotation Zrotation
												End Site
												{
													OFFSET -1.254608 7.132141 0.375429
												}
											}
										}
									}
								}
								JOINT LeftHandPinky1
								{
									OFFSET 18.920792 -0.453171 -11.426712
									CHANNELS 3 Xrotation Yrotation Zrotation
									JOINT LeftHandPinky2
									{
										OFFSET 4.919586 0.000000 0.000000
										CHANNELS 3 Xrotation Yrotation Zrotation
										JOINT LeftHandPinky3
										{
											OFFSET 5.233047 0.000000 0.000000
											CHANNELS 3 Xrotation Yrotation Zrotation
											JOINT LeftHandPinky4
											{
												OFFSET 5.571716 0.000000 0.000000
												CHANNELS 3 Xrotation Yrotation Zrotation
												End Site
												{
													OFFSET -3.459808 4.342407 -0.466164
												}
											}
										}
									}
								}
								JOINT LeftHandRing1
								{
									OFFSET 22.726120 -0.094986 -6.500475
									CHANNELS 3 Xrotation Yrotation Zrotation
									JOINT LeftHandRing2
									{
										OFFSET 6.408615 0.000000 0.000000
										CHANNELS 3 Xrotation Yrotation Zrotation
										JOINT LeftHandRing3
										{
											OFFSET 6.150223 0.000000 0.000000
											CHANNELS 3 Xrotation Yrotation Zrotation
											JOINT LeftHandRing4
											{
												OFFSET 6.145386 0.000000 0.000000
												CHANNELS 3 Xrotation Yrotation Zrotation
												End Site
												{
													OFFSET -3.671402 4.923981 -0.202372
												}
											}
										}
									}
								}
								JOINT LeftHandMiddle1
								{
									OFFSET 23.373947 0.000000 0.000001
									CHANNELS 3 Xrotation Yrotation Zrotation
									JOINT LeftHandMiddle2
									{
										OFFSET 6.996567 0.000000 0.000000
										CHANNELS 3 Xrotation Yrotation Zrotation
										JOINT LeftHandMiddle3
										{
											OFFSET 7.015945 0.000000 0.000000
											CHANNELS 3 Xrotation Yrotation Zrotation
											JOINT LeftHandMiddle4
											{
												OFFSET 7.721573 0.000000 0.000000
												CHANNELS 3 Xrotation Yrotation Zrotation
												End Site
												{
													OFFSET -4.651108 6.158463 0.251582
												}
											}
										}
									}
								}
								JOINT LeftHandIndex1
								{
									OFFSET 21.310577 -0.490082 6.209344
									CHANNELS 3 Xrotation Yrotation Zrotation
									JOINT LeftHandIndex2
									{
										OFFSET 7.536453 0.000000 0.000000
										CHANNELS 3 Xrotation Yrotation Zrotation
										JOINT LeftHandIndex3
										{
											OFFSET 7.512344 0.000000 0.000000
											CHANNELS 3 Xrotation Yrotation Zrotation
											JOINT LeftHandIndex4
											{
												OFFSET 10.212402 0.000000 0.000001
												CHANNELS 3 Xrotation Yrotation Zrotation
												End Site
												{
													OFFSET -5.180801 8.690506 1.388433
												}
											}
										}
									}
								}
							}
						}
					}
				}
				JOINT RightShoulder
				{
					OFFSET -17.399500 24.608795 1.168800
					CHANNELS 3 Xrotation Yrotation Zrotation
					JOINT RightArm
					{
						OFFSET -18.980635 5.765305 1.818600
						CHANNELS 3 Xrotation Yrotation Zrotation
						JOINT RightForeArm
						{
							OFFSET -49.290169 0.000000 0.000000
							CHANNELS 3 Xrotation Yrotation Zrotation
							JOINT RightHand
							{
								OFFSET -31.562012 0.000000 0.000000
								CHANNELS 3 Xrotation Yrotation Zrotation
								JOINT RightHandThumb1
								{
									OFFSET -6.133995 -4.388519 7.076070
									CHANNELS 3 Xrotation Yrotation Zrotation
									JOINT RightHandThumb2
									{
										OFFSET -6.037666 -3.485840 3.485847
										CHANNELS 3 Xrotation Yrotation Zrotation
										JOINT RightHandThumb3
										{
											OFFSET -6.496506 -3.750763 3.750761
											CHANNELS 3 Xrotation Yrotation Zrotation
											JOINT RightHandThumb4
											{
												OFFSET -5.616882 -3.242905 3.242910
												CHANNELS 3 Xrotation Yrotation Zrotation
												End Site
												{
													OFFSET 1.254608 7.132141 0.375429
												}
											}
										}
									}
								}
								JOINT RightHandIndex1
								{
									OFFSET -21.310577 -0.490082 6.209344
									CHANNELS 3 Xrotation Yrotation Zrotation
									JOINT RightHandIndex2
									{
										OFFSET -7.536453 0.000000 0.000000
										CHANNELS 3 Xrotation Yrotation Zrotation
										JOINT RightHandIndex3
										{
											OFFSET -7.512344 0.000000 0.000000
											CHANNELS 3 Xrotation Yrotation Zrotation
											JOINT RightHandIndex4
											{
												OFFSET -10.212402 0.000000 0.000001
												CHANNELS 3 Xrotation Yrotation Zrotation
												End Site
												{
													OFFSET 5.180801 8.690506 1.388433
												}
											}
										}
									}
								}
								JOINT RightHandMiddle1
								{
									OFFSET -23.373947 0.000000 0.000001
									CHANNELS 3 Xrotation Yrotation Zrotation
									JOINT RightHandMiddle2
									{
										OFFSET -6.996567 0.000000 0.000000
										CHANNELS 3 Xrotation Yrotation Zrotation
										JOINT RightHandMiddle3
										{
											OFFSET -7.015945 0.000000 0.000000
											CHANNELS 3 Xrotation Yrotation Zrotation
											JOINT RightHandMiddle4
											{
												OFFSET -7.721573 0.000000 0.000000
												CHANNELS 3 Xrotation Yrotation Zrotation
												End Site
												{
													OFFSET 4.651108 6.158463 0.251582
												}
											}
										}
									}
								}
								JOINT RightHandRing1
								{
									OFFSET -22.726120 -0.094986 -6.500475
									CHANNELS 3 Xrotation Yrotation Zrotation
									JOINT RightHandRing2
									{
										OFFSET -6.408615 0.000000 0.000000
										CHANNELS 3 Xrotation Yrotation Zrotation
										JOINT RightHandRing3
										{
											OFFSET -6.150223 0.000000 0.000000
											CHANNELS 3 Xrotation Yrotation Zrotation
											JOINT RightHandRing4
											{
												OFFSET -6.145386 0.000000 0.000000
												CHANNELS 3 Xrotation Yrotation Zrotation
												End Site
												{
													OFFSET 3.671402 4.923981 -0.202372
												}
											}
										}
									}
								}
								JOINT RightHandPinky1
								{
									OFFSET -18.920792 -0.453171 -11.426712
									CHANNELS 3 Xrotation Yrotation Zrotation
									JOINT RightHandPinky2
									{
										OFFSET -4.919586 0.000000 0.000000
										CHANNELS 3 Xrotation Yrotation Zrotation
										JOINT RightHandPinky3
										{
											OFFSET -5.233047 0.000000 0.000000
											CHANNELS 3 Xrotation Yrotation Zrotation
											JOINT RightHandPinky4
											{
												OFFSET -5.571716 0.000000 0.000000
												CHANNELS 3 Xrotation Yrotation Zrotation
												End Site
												{
													OFFSET 3.459808 4.342407 -0.466164
												}
											}
										}
									}
								}
							}
						}
					}
				}
			}
		}
	}
	JOINT LeftUpLeg
	{
		OFFSET 19.899099 -7.885101 -3.429500
		CHANNELS 3 Xrotation Yrotation Zrotation
		JOINT LeftLeg
		{
			OFFSET 1.745560 -36.997807 10.304700
			CHANNELS 3 Xrotation Yrotation Zrotation
			JOINT LeftFoot
			{
				OFFSET -1.745558 -29.803308 -13.615400
				CHANNELS 3 Xrotation Yrotation Zrotation
				JOINT LeftToeBase
				{
					OFFSET 1.181900 -18.539904 15.226099
					CHANNELS 3 Xrotation Yrotation Zrotation
					JOINT LeftToe_End
					{
						OFFSET -0.863701 1.402801 16.534700
						CHANNELS 3 Xrotation Yrotation Zrotation
						End Site
						{
							OFFSET 0.000000 16.616566 0.000000
						}
					}
				}
			}
		}
	}
	JOINT RightUpLeg
	{
		OFFSET -19.899099 -7.885101 -3.429500
		CHANNELS 3 Xrotation Yrotation Zrotation
		JOINT RightLeg
		{
			OFFSET -1.745560 -36.997807 10.304700
			CHANNELS 3 Xrotation Yrotation Zrotation
			JOINT RightFoot
			{
				OFFSET 1.745558 -29.803308 -13.615400
				CHANNELS 3 Xrotation Yrotation Zrotation
				JOINT RightToeBase
				{
					OFFSET -1.181900 -18.539904 15.226099
					CHANNELS 3 Xrotation Yrotation Zrotation
					JOINT RightToe_End
					{
						OFFSET 0.863701 1.402801 16.534700
						CHANNELS 3 Xrotation Yrotation Zrotation
						End Site
						{
							OFFSET 0.000000 16.616566 0.000000
						}
					}
				}
			}
		}
	}
}
MOTION
Frames: 4
Frame Time: 0.033333
-3.533235 73.023056 2.845479 17.083169 -50.757277 11.704563 27.128962 -1.786819 -4.370238 10.345835 6.695293 0.623861 9.409055 7.480447 -0.438114 -11.184359 -10.722941 -3.882861 -41.948403 50.860502 13.359695 -0.000000 -0.000000 -0.000001 5.113940 -13.673666 11.595733 -21.090314 19.448482 -63.307254 1.013314 -49.663542 0.433304 -38.289129 -1.865162 -7.228522 23.335818 6.059114 -19.498549 2.224457 10.473804 5.467028 1.639819 37.061470 20.413750 0.000001 0.000001 -0.000002 -6.100489 19.539416 -73.906472 6.517987 8.159866 -70.582574 5.838580 9.488266 -68.086795 0.000001 0.000004 -0.000002 -5.351377 7.451039 -69.372572 6.966907 8.602355 -73.522287 5.111156 9.244271 -61.011259 -0.000002 -0.000001 0.000003 2.307807 11.481305 -79.268696 5.927146 9.303834 -68.908126 4.574830 7.231924 -58.695319 -0.000004 -0.000001 0.000004 5.278395 6.146911 -66.183871 6.414060 7.432263 -77.075106 4.052104 9.746611 -58.395624 -0.000000 0.000003 0.000001 -4.225828 10.991439 -10.047932 9.883898 -43.372903 79.192820 3.971951 42.149384 -3.003106 -36.958871 20.809239 -26.453256 9.514106 8.529924 3.944629 5.490592 -27.075867 -11.002274 2.011089 -21.800249 -12.369549 0.000000 -0.000001 0.000002 -3.238234 -10.175853 -2.158967 1.716873 -4.443348 37.769522 0.700308 -5.960612 24.172212 -0.000001 -0.000003 -0.000002 0.682308 -8.412798 23.089378 1.172234 -5.179344 28.811568 0.551091 -2.237605 18.865281 -0.000001 -0.000000 -0.000001 0.886334 -11.785612 28.659214 2.870549 -6.192516 45.186127 2.380549 -7.032674 40.434744 0.000000 -0.000000 -0.000003 -9.547810 -20.288513 33.461701 7.865428 -8.522794 78.831612 3.480472 -8.122230 51.203377 -0.000001 -0.000002 0.000005 -63.128023 -0.441553 6.799025 85.255801 3.845351 -3.487961 -0.364393 -5.554426 11.602208 -9.760587 1.992205 -10.243170 -0.000000 -0.000002 -0.000000 -46.178205 -15.167583 -18.789726 63.396942 1.469847 5.776521 -27.359185 -11.162624 1.391270 -0.121150 -0.005602 0.670411 -0.000000 -0.000000 0.000000 
1.883288 72.529724 3.436875 16.549933 -49.357471 11.142181 26.175380 -2.436404 -3.432311 10.660143 6.377111 0.597219 9.711513 7.190265 -0.535385 -11.214783 -10.622513 -4.359331 -41.886658 50.771863 13.312598 -0.000000 -0.000000 0.000000 5.118292 -13.958894 11.598313 -21.690109 19.547462 -63.659262 1.007841 -49.414844 0.426093 -37.452926 -0.907331 -7.245555 23.335818 6.059113 -19.498547 2.224458 10.473808 5.467028 1.639820 37.061474 20.413748 0.000000 -0.000002 -0.000003 -6.100494 19.539412 -73.906465 6.517987 8.159867 -70.582574 5.838577 9.488266 -68.086795 -0.000001 0.000002 -0.000005 -5.351381 7.451039 -69.372578 6.966904 8.602358 -73.522287 5.111159 9.244267 -61.011266 -0.000000 0.000001 0.000005 2.307800 11.481305 -79.268689 5.927150 9.303834 -68.908119 4.574830 7.231925 -58.695319 -0.000002 0.000000 0.000004 5.278395 6.146911 -66.183877 6.414062 7.432262 -77.075106 4.052103 9.746604 -58.395624 0.000001 0.000003 0.000001 -4.293655 10.896247 -10.431025 10.119461 -43.331810 79.347667 4.136755 41.351198 -3.062303 -36.437878 21.225831 -26.275444 9.514104 8.529924 3.944628 5.490592 -27.075870 -11.002274 2.011091 -21.800244 -12.369549 -0.000000 -0.000001 0.000001 -3.240156 -10.230718 -1.811613 1.744997 -4.479294 38.084657 0.718160 -5.999915 24.459322 -0.000002 -0.000001 0.000001 0.708058 -8.471998 23.485575 1.199543 -5.228614 29.161489 0.567880 -2.286413 19.177964 -0.000001 -0.000000 -0.000004 0.956766 -11.754711 29.123824 2.918654 -6.239693 45.583214 2.420095 -7.078470 40.786328 0.000001 0.000002 0.000000 -9.494784 -20.362892 34.006098 7.942173 -8.537403 79.292875 3.531437 -8.162412 51.602957 0.000000 0.000000 0.000004 -56.580181 -4.483669 13.146394 87.938781 0.972465 -3.875310 -0.565021 -8.210241 12.493324 -13.711109 3.999953 -15.535323 0.000001 0.000003 -0.000002 -50.918968 -11.887301 -22.897152 62.710043 1.664887 6.103252 -20.491264 -12.521572 4.105469 -0.121151 -0.005589 0.670298 0.000000 -0.000000 -0.000000 
7.224542 72.206535 3.578927 16.034967 -47.875576 10.751608 25.567131 -3.096341 -2.584036 10.802585 6.046785 0.568780 9.861392 6.848149 -0.622743 -11.088751 -10.421882 -4.564483 -41.592898 50.631222 13.049070 -0.000000 0.000000 -0.000001 5.176848 -14.327039 11.602906 -21.879398 19.930762 -63.960111 1.008718 -49.053053 0.416531 -36.720303 -0.223714 -7.326038 23.335814 6.059118 -19.498553 2.224459 10.473805 5.467030 1.639824 37.061470 20.413747 -0.000000 -0.000004 -0.000003 -6.100494 19.539418 -73.906472 6.517988 8.159868 -70.582574 5.838580 9.488267 -68.086795 -0.000001 0.000000 -0.000006 -5.351379 7.451041 -69.372578 6.966909 8.602357 -73.522287 5.111156 9.244270 -61.011259 0.000001 0.000001 0.000002 2.307802 11.481306 -79.268689 5.927149 9.303832 -68.908126 4.574832 7.231926 -58.695319 0.000003 -0.000000 0.000001 5.278395 6.146914 -66.183877 6.414068 7.432264 -77.075113 4.052106 9.746609 -58.395624 0.000004 0.000003 0.000001 -4.392425 10.766859 -10.967409 10.655023 -43.123598 79.796636 4.067972 40.495553 -2.959062 -35.904522 21.691984 -25.993156 9.514105 8.529921 3.944630 5.490593 -27.075867 -11.002270 2.011088 -21.800248 -12.369550 0.000000 -0.000001 -0.000000 -3.242285 -10.308369 -1.320633 1.785238 -4.530089 38.531979 0.743987 -6.055799 24.868251 -0.000000 -0.000001 -0.000001 0.745099 -8.555155 24.043214 1.238762 -5.297903 29.656254 0.592245 -2.355489 19.621766 -0.000002 0.000002 -0.000004 1.054875 -11.710596 29.773850 2.986987 -6.305606 46.142234 2.476386 -7.142649 41.283412 -0.000001 0.000001 -0.000003 -9.419815 -20.465630 34.762811 8.049754 -8.556919 79.938471 3.603361 -8.218310 52.165423 0.000000 -0.000002 0.000002 -48.904878 -6.312740 18.537753 88.135818 -0.482917 -4.013078 -3.371147 -9.513484 14.964391 -11.357688 5.142917 -22.515220 -0.000000 0.000001 -0.000003 -54.832475 -8.828541 -26.385332 60.775051 1.625502 6.220258 -13.044983 -13.567475 6.635168 -0.121242 -0.005570 0.670306 0.000000 0.000000 -0.000000 
11.859344 71.934952 3.455482 15.553183 -46.386311 10.438041 25.201752 -3.633929 -1.862144 10.733704 5.871666 0.760407 9.821751 6.635468 -0.477626 -10.872240 -10.359363 -4.720152 -40.717804 50.481436 12.404423 -0.000001 0.000000 0.000000 5.278895 -14.759357 11.609830 -21.598455 19.921143 -64.655192 1.009325 -48.689765 0.407046 -36.087236 0.004324 -7.353475 23.335816 6.059121 -19.498547 2.224457 10.473807 5.467028 1.639813 37.061470 20.413743 0.000002 -0.000002 -0.000002 -6.100488 19.539414 -73.906472 6.517989 8.159866 -70.582574 5.838578 9.488266 -68.086795 -0.000001 0.000004 -0.000002 -5.351373 7.451046 -69.372572 6.966900 8.602355 -73.522287 5.111157 9.244267 -61.011259 -0.000003 -0.000001 0.000005 2.307808 11.481307 -79.268696 5.927149 9.303829 -68.908119 4.574834 7.231921 -58.695319 -0.000001 0.000001 0.000004 5.278395 6.146916 -66.183877 6.414060 7.432259 -77.075106 4.052104 9.746609 -58.395624 0.000000 0.000001 -0.000001 -4.520153 10.612999 -11.631616 11.466810 -43.165173 80.156778 4.267968 39.609203 -3.041775 -35.411071 22.186510 -25.614879 9.514104 8.529924 3.944628 5.490590 -27.075865 -11.002271 2.011086 -21.800249 -12.369549 0.000000 0.000000 0.000002 -3.244071 -10.405623 -0.705846 1.836376 -4.593412 39.094268 0.777025 -6.125929 25.384159 -0.000002 0.000000 0.000001 0.792260 -8.658094 24.737683 1.288667 -5.384027 30.275684 0.623718 -2.442174 20.179703 -0.000001 -0.000001 -0.000006 1.175366 -11.654485 30.577360 3.072917 -6.386543 46.838319 2.547719 -7.222502 41.906001 0.000002 0.000001 -0.000003 -9.325946 -20.590157 35.691434 8.183099 -8.579337 80.737112 3.693793 -8.286957 52.865801 -0.000001 -0.000001 -0.000001 -41.306757 -6.310275 23.266997 86.863627 -0.423431 -4.037711 -8.130295 -10.276234 17.425184 -8.347745 4.842736 -23.506851 -0.000001 0.000001 0.000000 -57.396914 -6.216719 -29.496466 58.519688 0.015305 6.195105 -6.277162 -12.723868 9.384963 -0.121184 -0.005575 0.670264 -0.000000 -0.000000 0.000000 
